<svg xmlns="http://www.w3.org/2000/svg" xmlns:xlink="http://www.w3.org/1999/xlink" width="35.381" height="35.381" viewBox="0 0 37.381 35.381">
    <defs>
        <style>
            .cls-1{fill:#555}.cls-2{fill:url(#linear-gradient)}.cls-3{fill:url(#linear-gradient-2)}.cls-4{fill:url(#linear-gradient-3)}
        </style>
        <linearGradient id="linear-gradient" x1="2.535" x2="3.716" y1="-.089" y2="-.089" gradientUnits="objectBoundingBox">
            <stop offset="0" stop-color="#0071bc"/>
            <stop offset="1" stop-color="#29abe2"/>
        </linearGradient>
        <linearGradient id="linear-gradient-2" x1="2.247" x2="2.998" y1="-.395" y2="-.395" xlink:href="#linear-gradient"/>
        <linearGradient id="linear-gradient-3" x1="2.216" x2="3.092" y1="-.667" y2="-.667" xlink:href="#linear-gradient"/>
    </defs>
    <g id="idesse-logo" transform="translate(-11.279 -46.335)">
        
        <g id="Group_1583" data-name="Group 1583" transform="translate(11.28 46.335)">
            <g id="Group_1582" data-name="Group 1582">
                <path id="Path_898" d="M137.192 46.372s.349-.016 1-.037a7.915 7.915 0 0 1 2.786.661 12.036 12.036 0 0 1 3.689 2.524 18.382 18.382 0 0 1 3.427 4.743 21.813 21.813 0 0 1 2.06 6.607c.067.621.153 1.209.2 1.877.015.614.055 1.218.04 1.867a27.077 27.077 0 0 1-.309 3.933 24.935 24.935 0 0 1-2.457 7.754 12.116 12.116 0 0 1-2.559 3.368 7.3 7.3 0 0 1-3.962 1.963l-1.035.084-1.183-.1a9.131 9.131 0 0 1-2.16-.688 12.49 12.49 0 0 1-3.5-2.664 21.029 21.029 0 0 1-4.168-7.242 26.074 26.074 0 0 1-1.457-7.589 23.076 23.076 0 0 1 .651-6.945 18.625 18.625 0 0 1 2.319-5.389 12.151 12.151 0 0 1 3.045-3.288 7.931 7.931 0 0 1 2.569-1.251c.653-.125 1.004-.188 1.004-.188zm.012.2l-.953.207a6.383 6.383 0 0 0-2.39 1.335 9.865 9.865 0 0 0-2.476 3.426 18.7 18.7 0 0 0-1.439 5.281 31 31 0 0 0 1.127 13.527 19.561 19.561 0 0 0 3.5 6.719c1.636 1.935 3.822 3.595 6.506 3.447a6.475 6.475 0 0 0 3.5-1.43A11.312 11.312 0 0 0 147.073 76a16.955 16.955 0 0 0 1.919-7.56 27.326 27.326 0 0 0-.094-3.72c-.048-.606-.16-1.233-.226-1.833l-.288-1.716a35.382 35.382 0 0 0-1.767-6.239 19.122 19.122 0 0 0-2.611-4.819 9.844 9.844 0 0 0-3.183-2.793 6.3 6.3 0 0 0-2.626-.761c-.649.011-.997.015-.997.015z" class="cls-2" data-name="Path 898" transform="translate(-114.086 -46.335)"/>
                <path id="Path_899" d="M40.837 76.343l.562-.828a8.059 8.059 0 0 1 2.19-1.844 12.219 12.219 0 0 1 4.228-1.462 18.414 18.414 0 0 1 5.855.07 21.873 21.873 0 0 1 6.53 2.283c.541.318 1.063.6 1.63.953.506.354 1.013.684 1.526 1.08a27.152 27.152 0 0 1 2.974 2.592A24.887 24.887 0 0 1 71.1 85.78a11.957 11.957 0 0 1 1.176 4.059 7.374 7.374 0 0 1-.748 4.317l-.58.918-.782.893a9.362 9.362 0 0 1-1.843 1.324 12.509 12.509 0 0 1-4.228 1.228 21.117 21.117 0 0 1-8.3-.963 26.13 26.13 0 0 1-6.966-3.356 23.082 23.082 0 0 1-5.189-4.658 18.7 18.7 0 0 1-2.94-5.07 12.118 12.118 0 0 1-.831-4.407 7.951 7.951 0 0 1 .523-2.809c.284-.594.445-.913.445-.913zm.172.109l-.4.89a6.329 6.329 0 0 0-.356 2.715 9.852 9.852 0 0 0 1.282 4.027 18.543 18.543 0 0 0 3.384 4.3 31.09 31.09 0 0 0 11.536 7.153 19.635 19.635 0 0 0 7.491 1.184c2.513-.145 5.183-.97 6.613-3.132a6.407 6.407 0 0 0 .958-3.7 11.349 11.349 0 0 0-.994-3.848A16.96 16.96 0 0 0 65.589 80a27 27 0 0 0-3.044-2.141c-.509-.321-1.082-.6-1.608-.91l-1.548-.788a35.1 35.1 0 0 0-6.062-2.3 19.128 19.128 0 0 0-5.432-.774 9.817 9.817 0 0 0-4.135.9 6.272 6.272 0 0 0-2.173 1.657z" class="cls-3" data-name="Path 899" transform="translate(-36.549 -69.031)"/>
                <path id="Path_900" d="M11.28 161.795s.019-.35.051-1a8.057 8.057 0 0 1 .911-2.713 12.074 12.074 0 0 1 2.851-3.447 18.474 18.474 0 0 1 5.039-2.984 21.849 21.849 0 0 1 6.761-1.452c.627-.005 1.219-.04 1.887-.03.618.039 1.219.054 1.867.129a27.109 27.109 0 0 1 3.886.662 24.861 24.861 0 0 1 7.5 3.154 11.935 11.935 0 0 1 3.118 2.851 7.3 7.3 0 0 1 1.6 4.122l-.014 1.04-.2 1.17a9.346 9.346 0 0 1-.883 2.088 12.531 12.531 0 0 1-2.974 3.247 21.013 21.013 0 0 1-7.587 3.491 25.83 25.83 0 0 1-7.692.764 23.058 23.058 0 0 1-6.857-1.279 18.677 18.677 0 0 1-5.155-2.8 12.074 12.074 0 0 1-3-3.329 8.075 8.075 0 0 1-1.017-2.669l-.092-1.015zm.206.007l.119.968a6.333 6.333 0 0 0 1.109 2.5 9.847 9.847 0 0 0 3.191 2.774 18.63 18.63 0 0 0 5.128 1.914 31.024 31.024 0 0 0 13.573.107 19.657 19.657 0 0 0 7.011-2.885c2.075-1.455 3.923-3.481 4.016-6.165a6.436 6.436 0 0 0-1.105-3.613 11.311 11.311 0 0 0-2.846-2.765 16.933 16.933 0 0 0-7.358-2.6 27.872 27.872 0 0 0-3.715-.243c-.6-.006-1.236.047-1.844.06-.585.044-1.163.09-1.73.132a35.191 35.191 0 0 0-6.376 1.193 19.129 19.129 0 0 0-5.036 2.165 9.875 9.875 0 0 0-3.071 2.917 6.352 6.352 0 0 0-.993 2.544c-.051.651-.073.995-.073.995z" class="cls-4" data-name="Path 900" transform="translate(-11.28 -138.123)"/>
            </g>
        </g>
    </g>
</svg>
